<?xml version="1.0" encoding="UTF-8" standalone="no"?>
<!-- Created with Inkscape (http://www.inkscape.org/) -->

<svg
   width="210mm"
   height="297mm"
   viewBox="0 0 210 297"
   version="1.1"
   id="svg5"
   inkscape:version="1.1.1 (3bf5ae0d25, 2021-09-20)"
   sodipodi:docname="fb.svg"
   xmlns:inkscape="http://www.inkscape.org/namespaces/inkscape"
   xmlns:sodipodi="http://sodipodi.sourceforge.net/DTD/sodipodi-0.dtd"
   xmlns:xlink="http://www.w3.org/1999/xlink"
   xmlns="http://www.w3.org/2000/svg"
   xmlns:svg="http://www.w3.org/2000/svg">
  <sodipodi:namedview
     id="namedview7"
     pagecolor="#ffffff"
     bordercolor="#666666"
     borderopacity="1.0"
     inkscape:pageshadow="2"
     inkscape:pageopacity="0.0"
     inkscape:pagecheckerboard="0"
     inkscape:document-units="mm"
     showgrid="false"
     showguides="true"
     inkscape:guide-bbox="true"
     inkscape:zoom="0.64052329"
     inkscape:cx="168.61214"
     inkscape:cy="533.15782"
     inkscape:window-width="1920"
     inkscape:window-height="1009"
     inkscape:window-x="1912"
     inkscape:window-y="-8"
     inkscape:window-maximized="1"
     inkscape:current-layer="layer1">
    <sodipodi:guide
       position="86.12587,247.32789"
       orientation="0,-1"
       id="guide44110" />
    <sodipodi:guide
       position="85.402991,271.38943"
       orientation="1,0"
       id="guide44112" />
    <sodipodi:guide
       position="89.430459,214.48853"
       orientation="0,-1"
       id="guide44348" />
    <sodipodi:guide
       position="83.647425,182.16551"
       orientation="0,-1"
       id="guide44350" />
    <sodipodi:guide
       position="86.125867,149.11961"
       orientation="0,-1"
       id="guide44352" />
    <sodipodi:guide
       position="82.511472,114.8345"
       orientation="0,-1"
       id="guide44354" />
    <sodipodi:guide
       position="85.609525,82.201671"
       orientation="0,-1"
       id="guide44356" />
    <sodipodi:guide
       position="119.79137,247.3279"
       orientation="1,0"
       id="guide50729" />
    <sodipodi:guide
       position="151.70132,241.44159"
       orientation="1,0"
       id="guide50731" />
  </sodipodi:namedview>
  <defs
     id="defs2">
    <inkscape:path-effect
       effect="fillet_chamfer"
       id="path-effect44312"
       is_visible="true"
       lpeversion="1"
       satellites_param="F,0,0,1,0,2.6458333,0,1 @ F,0,0,1,0,2.6458333,0,1 @ F,0,0,1,0,2.6458333,0,1 @ F,0,0,1,0,2.6458333,0,1"
       unit="px"
       method="auto"
       mode="F"
       radius="10"
       chamfer_steps="1"
       flexible="false"
       use_knot_distance="true"
       apply_no_radius="true"
       apply_with_radius="true"
       only_selected="false"
       hide_knots="false" />
    <inkscape:path-effect
       effect="fillet_chamfer"
       id="path-effect44275"
       is_visible="true"
       lpeversion="1"
       satellites_param="F,0,0,1,0,2.6458333,0,1 @ F,0,0,1,0,2.6458333,0,1 @ F,0,0,1,0,2.6458333,0,1 @ F,0,0,1,0,2.6458333,0,1"
       unit="px"
       method="auto"
       mode="F"
       radius="10"
       chamfer_steps="1"
       flexible="false"
       use_knot_distance="true"
       apply_no_radius="true"
       apply_with_radius="true"
       only_selected="false"
       hide_knots="false" />
    <inkscape:path-effect
       effect="fillet_chamfer"
       id="path-effect44238"
       is_visible="true"
       lpeversion="1"
       satellites_param="F,0,0,1,0,2.6458333,0,1 @ F,0,0,1,0,2.6458333,0,1 @ F,0,0,1,0,2.6458333,0,1 @ F,0,0,1,0,2.6458333,0,1"
       unit="px"
       method="auto"
       mode="F"
       radius="10"
       chamfer_steps="1"
       flexible="false"
       use_knot_distance="true"
       apply_no_radius="true"
       apply_with_radius="true"
       only_selected="false"
       hide_knots="false" />
    <inkscape:path-effect
       effect="fillet_chamfer"
       id="path-effect44201"
       is_visible="true"
       lpeversion="1"
       satellites_param="F,0,0,1,0,2.6458333,0,1 @ F,0,0,1,0,2.6458333,0,1 @ F,0,0,1,0,2.6458333,0,1 @ F,0,0,1,0,2.6458333,0,1"
       unit="px"
       method="auto"
       mode="F"
       radius="10"
       chamfer_steps="1"
       flexible="false"
       use_knot_distance="true"
       apply_no_radius="true"
       apply_with_radius="true"
       only_selected="false"
       hide_knots="false" />
    <inkscape:path-effect
       effect="fillet_chamfer"
       id="path-effect44164"
       is_visible="true"
       lpeversion="1"
       satellites_param="F,0,0,1,0,2.6458333,0,1 @ F,0,0,1,0,2.6458333,0,1 @ F,0,0,1,0,2.6458333,0,1 @ F,0,0,1,0,2.6458333,0,1"
       unit="px"
       method="auto"
       mode="F"
       radius="10"
       chamfer_steps="1"
       flexible="false"
       use_knot_distance="true"
       apply_no_radius="true"
       apply_with_radius="true"
       only_selected="false"
       hide_knots="false" />
    <inkscape:path-effect
       effect="fillet_chamfer"
       id="path-effect33976"
       is_visible="true"
       lpeversion="1"
       satellites_param="F,0,0,1,0,2.6458333,0,1 @ F,0,0,1,0,2.6458333,0,1 @ F,0,0,1,0,2.6458333,0,1 @ F,0,0,1,0,2.6458333,0,1"
       unit="px"
       method="auto"
       mode="F"
       radius="10"
       chamfer_steps="1"
       flexible="false"
       use_knot_distance="true"
       apply_no_radius="true"
       apply_with_radius="true"
       only_selected="false"
       hide_knots="false" />
    <linearGradient
       inkscape:collect="always"
       id="linearGradient19104">
      <stop
         style="stop-color:#0062e0;stop-opacity:1"
         offset="0"
         id="stop19100" />
      <stop
         style="stop-color:#19afff;stop-opacity:1"
         offset="1"
         id="stop19102" />
    </linearGradient>
    <linearGradient
       inkscape:collect="always"
       xlink:href="#linearGradient19104"
       id="linearGradient19106"
       x1="93.175819"
       y1="59.877884"
       x2="154.93852"
       y2="25.411589"
       gradientUnits="userSpaceOnUse"
       gradientTransform="matrix(0.74972613,0,0,0.7894302,23.301738,12.595792)" />
    <linearGradient
       inkscape:collect="always"
       xlink:href="#linearGradient19104"
       id="linearGradient44166"
       gradientUnits="userSpaceOnUse"
       gradientTransform="matrix(0.74972613,0,0,0.7894302,23.301738,45.450688)"
       x1="93.175819"
       y1="59.877884"
       x2="154.93852"
       y2="25.411589" />
    <linearGradient
       inkscape:collect="always"
       xlink:href="#linearGradient19104"
       id="linearGradient44203"
       gradientUnits="userSpaceOnUse"
       gradientTransform="matrix(0.74972613,0,0,0.7894302,23.301738,77.653382)"
       x1="93.175819"
       y1="59.877884"
       x2="154.93852"
       y2="25.411589" />
    <linearGradient
       inkscape:collect="always"
       xlink:href="#linearGradient19104"
       id="linearGradient44240"
       gradientUnits="userSpaceOnUse"
       gradientTransform="matrix(0.74972613,0,0,0.7894302,23.301738,110.71008)"
       x1="93.175819"
       y1="59.877884"
       x2="154.93852"
       y2="25.411589" />
    <linearGradient
       inkscape:collect="always"
       xlink:href="#linearGradient19104"
       id="linearGradient44277"
       gradientUnits="userSpaceOnUse"
       gradientTransform="matrix(0.74972613,0,0,0.7894302,23.301738,145.00442)"
       x1="93.175819"
       y1="59.877884"
       x2="154.93852"
       y2="25.411589" />
    <linearGradient
       inkscape:collect="always"
       xlink:href="#linearGradient19104"
       id="linearGradient44314"
       gradientUnits="userSpaceOnUse"
       gradientTransform="matrix(0.74972613,0,0,0.7894302,23.301738,177.71095)"
       x1="93.175819"
       y1="59.877884"
       x2="154.93852"
       y2="25.411589" />
  </defs>
  <g
     inkscape:label="Layer 1"
     inkscape:groupmode="layer"
     id="layer1">
    <path
       style="fill:url(#linearGradient19106);fill-opacity:1;stroke:#ffffff;stroke-width:0.264583"
       id="rect19098"
       width="65.476646"
       height="27.439316"
       x="93.158089"
       y="32.425884"
       inkscape:path-effect="#path-effect33976"
       sodipodi:type="rect"
       d="M 95.803922,32.425884 H 155.9889 a 2.6458333,2.6458333 45 0 1 2.64584,2.645834 l 0,22.147649 A 2.6458333,2.6458333 135 0 1 155.9889,59.8652 H 95.803922 A 2.6458333,2.6458333 45 0 1 93.158089,57.219367 V 35.071718 a 2.6458333,2.6458333 135 0 1 2.645833,-2.645834 z"
       inkscape:export-filename="D:\Code\afbunchee-site\src\images\fb-saimai-en.png"
       inkscape:export-xdpi="120"
       inkscape:export-ydpi="120" />
    <path
       style="fill:#ffffff;fill-opacity:1;stroke-width:0.0138561"
       d="m 105.58703,59.708795 c 0.0735,-1.636383 0.0342,-3.367642 0.0342,-5.034875 v -5.007976 h -1.77358 -1.77359 v -1.98835 -1.988351 h 1.77359 1.77358 l 7e-5,-1.673124 c 7e-5,-1.658182 0.006,-1.934405 0.0495,-2.310505 0.14743,-1.275195 0.61595,-2.330216 1.38886,-3.127478 0.80575,-0.831139 1.92843,-1.347633 3.25883,-1.499244 0.71378,-0.08134 1.59969,-0.05321 2.83357,0.08999 0.36346,0.04218 1.04044,0.13134 1.0981,0.144621 l 0.0312,0.0072 v 1.807011 1.80701 l -1.11888,0.0057 c -1.20872,0.0061 -1.22703,0.0071 -1.56445,0.08659 -0.7017,0.165225 -1.12179,0.610795 -1.24422,1.319679 -0.0438,0.253509 -0.0489,0.451726 -0.049,1.891161 l -1.2e-4,1.451427 h 1.8775 1.8775 l -7e-4,0.03118 c -3.9e-4,0.01715 -0.14245,0.910346 -0.31568,1.984887 l -0.31497,1.95371 -1.56182,0.0035 -1.56182,0.0035 v 5.000419 5.000421 c -2.41106,0.210941 9.12306,-0.260298 -2.41106,0.210941 -2.30661,-0.169044 -30.041343,-2.125568 -2.30661,-0.169044 z"
       id="path35319"
       sodipodi:nodetypes="cccccccccscsssscccccsscccssccccccc" />
    <path
       style="fill:url(#linearGradient44166);fill-opacity:1;stroke:#ffffff;stroke-width:0.264583"
       id="rect19098-8"
       width="65.476646"
       height="27.439316"
       x="93.158089"
       y="65.280785"
       inkscape:path-effect="#path-effect44164"
       sodipodi:type="rect"
       d="M 95.803922,65.280785 H 155.9889 a 2.6458333,2.6458333 45 0 1 2.64584,2.645833 l 0,22.147649 A 2.6458333,2.6458333 135 0 1 155.9889,92.7201 H 95.803922 A 2.6458333,2.6458333 45 0 1 93.158089,90.074267 V 67.926618 a 2.6458333,2.6458333 135 0 1 2.645833,-2.645833 z"
       inkscape:export-filename="D:\Code\afbunchee-site\src\images\fb-bangphli-th.png"
       inkscape:export-xdpi="120"
       inkscape:export-ydpi="120" />
    <path
       style="fill:#ffffff;fill-opacity:1;stroke-width:0.0138561"
       d="m 105.58703,92.55764 c 0.0735,-1.636383 0.0342,-3.367642 0.0342,-5.034875 v -5.007976 h -1.77358 -1.77359 v -1.98835 -1.988351 h 1.77359 1.77358 l 7e-5,-1.673124 c 7e-5,-1.658182 0.006,-1.934405 0.0495,-2.310505 0.14743,-1.275195 0.61595,-2.330216 1.38886,-3.127478 0.80575,-0.831139 1.92843,-1.347633 3.25883,-1.499244 0.71378,-0.08134 1.59969,-0.05321 2.83357,0.08999 0.36346,0.04218 1.04044,0.13134 1.0981,0.144621 l 0.0312,0.0072 v 1.807011 1.80701 l -1.11888,0.0057 c -1.20872,0.0061 -1.22703,0.0071 -1.56445,0.08659 -0.7017,0.165225 -1.12179,0.610795 -1.24422,1.319679 -0.0438,0.253509 -0.0489,0.451726 -0.049,1.891161 l -1.2e-4,1.451427 h 1.8775 1.8775 l -7e-4,0.03118 c -3.9e-4,0.01715 -0.14245,0.910346 -0.31568,1.984887 l -0.31497,1.95371 -1.56182,0.0035 -1.56182,0.0035 v 5.000419 5.000421 c -2.41106,0.210941 9.12306,-0.260298 -2.41106,0.210941 -2.30661,-0.169044 -30.041343,-2.125568 -2.30661,-0.169044 z"
       id="path35319-7"
       sodipodi:nodetypes="cccccccccscsssscccccsscccssccccccc" />
    <path
       style="fill:url(#linearGradient44203);fill-opacity:1;stroke:#ffffff;stroke-width:0.264583"
       id="rect19098-9"
       width="65.476646"
       height="27.439316"
       x="93.158089"
       y="97.483475"
       inkscape:path-effect="#path-effect44201"
       sodipodi:type="rect"
       d="M 95.803922,97.483475 H 155.9889 a 2.6458333,2.6458333 45 0 1 2.64584,2.645835 l 0,22.14765 a 2.6458333,2.6458333 135 0 1 -2.64584,2.64583 H 95.803922 a 2.6458333,2.6458333 45 0 1 -2.645833,-2.64583 v -22.14765 a 2.6458333,2.6458333 135 0 1 2.645833,-2.645835 z"
       inkscape:export-filename="D:\Code\afbunchee-site\src\images\fb-latkrabang-en.png"
       inkscape:export-xdpi="120"
       inkscape:export-ydpi="120" />
    <path
       style="fill:#ffffff;fill-opacity:1;stroke-width:0.0138561"
       d="m 105.58703,124.7544 c 0.0735,-1.63638 0.0342,-3.36764 0.0342,-5.03487 v -5.00798 h -1.77358 -1.77359 v -1.98835 -1.98835 h 1.77359 1.77358 l 7e-5,-1.67312 c 7e-5,-1.65818 0.006,-1.93441 0.0495,-2.31051 0.14743,-1.27519 0.61595,-2.33021 1.38886,-3.12747 0.80575,-0.83114 1.92843,-1.34764 3.25883,-1.49925 0.71378,-0.0813 1.59969,-0.0532 2.83357,0.09 0.36346,0.0422 1.04044,0.13134 1.0981,0.14462 l 0.0312,0.007 v 1.80701 1.80701 l -1.11888,0.006 c -1.20872,0.006 -1.22703,0.007 -1.56445,0.0866 -0.7017,0.16523 -1.12179,0.6108 -1.24422,1.31968 -0.0438,0.25351 -0.0489,0.45173 -0.049,1.89116 l -1.2e-4,1.45143 h 1.8775 1.8775 l -7e-4,0.0312 c -3.9e-4,0.0172 -0.14245,0.91035 -0.31568,1.98489 l -0.31497,1.95371 -1.56182,0.004 -1.56182,0.004 v 5.00042 5.00042 c -2.41106,0.21094 9.12306,-0.2603 -2.41106,0.21094 -2.30661,-0.16905 -30.041343,-2.12557 -2.30661,-0.16905 z"
       id="path35319-6"
       sodipodi:nodetypes="cccccccccscsssscccccsscccssccccccc" />
    <path
       style="fill:url(#linearGradient44240);fill-opacity:1;stroke:#ffffff;stroke-width:0.264583"
       id="rect19098-4"
       width="65.476646"
       height="27.439316"
       x="93.158089"
       y="130.54018"
       inkscape:path-effect="#path-effect44238"
       sodipodi:type="rect"
       d="M 95.803922,130.54018 H 155.9889 a 2.6458333,2.6458333 45 0 1 2.64584,2.64583 l 0,22.14765 a 2.6458333,2.6458333 135 0 1 -2.64584,2.64583 H 95.803922 a 2.6458333,2.6458333 45 0 1 -2.645833,-2.64583 v -22.14765 a 2.6458333,2.6458333 135 0 1 2.645833,-2.64583 z"
       inkscape:export-filename="D:\Code\afbunchee-site\src\images\fb-latkrabang-th.png"
       inkscape:export-xdpi="120"
       inkscape:export-ydpi="120" />
    <path
       style="fill:#ffffff;fill-opacity:1;stroke-width:0.0138561"
       d="m 105.58703,157.80502 c 0.0735,-1.63639 0.0342,-3.36765 0.0342,-5.03488 v -5.00797 h -1.77358 -1.77359 v -1.98835 -1.98836 h 1.77359 1.77358 l 7e-5,-1.67312 c 7e-5,-1.65818 0.006,-1.9344 0.0495,-2.3105 0.14743,-1.2752 0.61595,-2.33022 1.38886,-3.12748 0.80575,-0.83114 1.92843,-1.34764 3.25883,-1.49925 0.71378,-0.0813 1.59969,-0.0532 2.83357,0.09 0.36346,0.0422 1.04044,0.13134 1.0981,0.14462 l 0.0312,0.007 v 1.80702 1.80701 l -1.11888,0.006 c -1.20872,0.006 -1.22703,0.007 -1.56445,0.0866 -0.7017,0.16522 -1.12179,0.61079 -1.24422,1.31967 -0.0438,0.25351 -0.0489,0.45173 -0.049,1.89117 l -1.2e-4,1.45142 h 1.8775 1.8775 l -7e-4,0.0312 c -3.9e-4,0.0172 -0.14245,0.91035 -0.31568,1.98489 l -0.31497,1.95371 -1.56182,0.004 -1.56182,0.004 v 5.00042 5.00042 c -2.41106,0.21094 9.12306,-0.2603 -2.41106,0.21094 -2.30661,-0.16904 -30.041343,-2.12557 -2.30661,-0.16904 z"
       id="path35319-4"
       sodipodi:nodetypes="cccccccccscsssscccccsscccssccccccc" />
    <path
       style="fill:url(#linearGradient44277);fill-opacity:1;stroke:#ffffff;stroke-width:0.264583"
       id="rect19098-3"
       width="65.476646"
       height="27.439316"
       x="93.158089"
       y="164.83452"
       inkscape:path-effect="#path-effect44275"
       sodipodi:type="rect"
       d="m 95.803922,164.83452 60.184978,0 a 2.6458333,2.6458333 45 0 1 2.64584,2.64583 l 0,22.14765 a 2.6458333,2.6458333 135 0 1 -2.64584,2.64583 l -60.184978,0 A 2.6458333,2.6458333 45 0 1 93.158089,189.628 v -22.14765 a 2.6458333,2.6458333 135 0 1 2.645833,-2.64583 z"
       inkscape:export-filename="D:\Code\afbunchee-site\src\images\fb-saimai-th.png"
       inkscape:export-xdpi="120"
       inkscape:export-ydpi="120" />
    <path
       style="fill:#ffffff;fill-opacity:1;stroke-width:0.0138561"
       d="m 105.58703,192.09304 c 0.0735,-1.63639 0.0342,-3.36765 0.0342,-5.03488 v -5.00798 h -1.77358 -1.77359 v -1.98835 -1.98835 h 1.77359 1.77358 l 7e-5,-1.67312 c 7e-5,-1.65818 0.006,-1.93441 0.0495,-2.31051 0.14743,-1.27519 0.61595,-2.33021 1.38886,-3.12747 0.80575,-0.83114 1.92843,-1.34764 3.25883,-1.49925 0.71378,-0.0813 1.59969,-0.0532 2.83357,0.09 0.36346,0.0422 1.04044,0.13134 1.0981,0.14462 l 0.0312,0.007 v 1.80701 1.80701 l -1.11888,0.006 c -1.20872,0.006 -1.22703,0.007 -1.56445,0.0866 -0.7017,0.16523 -1.12179,0.6108 -1.24422,1.31968 -0.0438,0.25351 -0.0489,0.45173 -0.049,1.89116 l -1.2e-4,1.45143 h 1.8775 1.8775 l -7e-4,0.0312 c -3.9e-4,0.0171 -0.14245,0.91035 -0.31568,1.98489 l -0.31497,1.95371 -1.56182,0.004 -1.56182,0.004 v 5.00042 5.00042 c -2.41106,0.21094 9.12306,-0.2603 -2.41106,0.21094 -2.30661,-0.16904 -30.041343,-2.12557 -2.30661,-0.16904 z"
       id="path35319-5"
       sodipodi:nodetypes="cccccccccscsssscccccsscccssccccccc" />
    <path
       style="fill:url(#linearGradient44314);fill-opacity:1;stroke:#ffffff;stroke-width:0.264583"
       id="rect19098-42"
       width="65.476646"
       height="27.439316"
       x="93.158089"
       y="197.54105"
       inkscape:path-effect="#path-effect44312"
       sodipodi:type="rect"
       d="M 95.803922,197.54105 H 155.9889 a 2.6458333,2.6458333 45 0 1 2.64584,2.64583 l 0,22.14765 a 2.6458333,2.6458333 135 0 1 -2.64584,2.64583 H 95.803922 a 2.6458333,2.6458333 45 0 1 -2.645833,-2.64583 v -22.14765 a 2.6458333,2.6458333 135 0 1 2.645833,-2.64583 z"
       inkscape:export-filename="D:\Code\afbunchee-site\src\images\fb-bangphli-en.png"
       inkscape:export-xdpi="120"
       inkscape:export-ydpi="120" />
    <path
       style="fill:#ffffff;fill-opacity:1;stroke-width:0.0138561"
       d="m 105.58703,224.79355 c 0.0735,-1.63639 0.0342,-3.36765 0.0342,-5.03488 v -5.00798 h -1.77358 -1.77359 v -1.98835 -1.98835 h 1.77359 1.77358 l 7e-5,-1.67312 c 7e-5,-1.65818 0.006,-1.93441 0.0495,-2.31051 0.14743,-1.27519 0.61595,-2.33021 1.38886,-3.12747 0.80575,-0.83114 1.92843,-1.34764 3.25883,-1.49925 0.71378,-0.0813 1.59969,-0.0532 2.83357,0.09 0.36346,0.0422 1.04044,0.13134 1.0981,0.14462 l 0.0312,0.007 v 1.80701 1.80701 l -1.11888,0.006 c -1.20872,0.006 -1.22703,0.007 -1.56445,0.0866 -0.7017,0.16523 -1.12179,0.6108 -1.24422,1.31968 -0.0438,0.25351 -0.0489,0.45173 -0.049,1.89116 l -1.2e-4,1.45143 h 1.8775 1.8775 l -7e-4,0.0312 c -3.9e-4,0.0172 -0.14245,0.91035 -0.31568,1.98489 l -0.31497,1.95371 -1.56182,0.004 -1.56182,0.004 v 5.00042 5.00042 c -2.41106,0.21094 9.12306,-0.2603 -2.41106,0.21094 -2.30661,-0.16904 -30.041343,-2.12557 -2.30661,-0.16904 z"
       id="path35319-9"
       sodipodi:nodetypes="cccccccccscsssscccccsscccssccccccc" />
  </g>
  <g
     inkscape:groupmode="layer"
     id="layer2"
     inkscape:label="Layer 2"
     style="display:inline">
    <text
       xml:space="preserve"
       style="font-size:10.5833px;line-height:1.25;font-family:Mitr;-inkscape-font-specification:Mitr;fill:#ffffff;fill-opacity:1;stroke-width:0.264583"
       x="119.36816"
       y="49.272015"
       id="text16090"><tspan
         sodipodi:role="line"
         id="tspan16088"
         style="fill:#ffffff;fill-opacity:1;stroke-width:0.264583"
         x="119.36816"
         y="49.272015">Saimai</tspan></text>
  </g>
  <g
     inkscape:groupmode="layer"
     id="layer3"
     inkscape:label="Layer 3"
     style="display:inline">
    <text
       xml:space="preserve"
       style="font-size:9.07121px;line-height:1.25;font-family:Mitr;-inkscape-font-specification:Mitr;fill:#ffffff;fill-opacity:1;stroke-width:0.226781"
       x="139.28874"
       y="184.09018"
       id="text8120"
       transform="scale(0.85712502,1.1666909)"><tspan
         sodipodi:role="line"
         id="tspan8118"
         style="fill:#ffffff;fill-opacity:1;stroke-width:0.226781"
         x="139.28874"
         y="184.09018">BangPhli</tspan></text>
  </g>
  <g
     inkscape:groupmode="layer"
     id="layer4"
     inkscape:label="Layer 4"
     style="display:inline">
    <text
       xml:space="preserve"
       style="font-size:10.416px;line-height:1.25;font-family:Mitr;-inkscape-font-specification:Mitr;fill:#ffffff;fill-opacity:1;stroke-width:0.260401"
       x="121.17573"
       y="178.94917"
       id="text7192"
       transform="scale(0.98419249,1.0160614)"><tspan
         sodipodi:role="line"
         id="tspan7190"
         style="fill:#ffffff;fill-opacity:1;stroke-width:0.260401"
         x="121.17573"
         y="178.94917">สายไหม</tspan></text>
  </g>
  <g
     inkscape:groupmode="layer"
     id="layer5"
     inkscape:label="Layer 5"
     style="display:inline">
    <text
       xml:space="preserve"
       style="font-size:8.7626px;line-height:1.25;font-family:Mitr;-inkscape-font-specification:Mitr;fill:#ffffff;fill-opacity:1;stroke-width:0.219065"
       x="144.57018"
       y="122.27591"
       id="text5670"
       transform="scale(0.82796463,1.2077811)"><tspan
         sodipodi:role="line"
         id="tspan5668"
         style="fill:#ffffff;fill-opacity:1;stroke-width:0.219065"
         x="144.57018"
         y="122.27591">ลาดกระบัง</tspan></text>
  </g>
  <g
     inkscape:groupmode="layer"
     id="layer6"
     inkscape:label="Layer 6"
     style="display:inline">
    <text
       xml:space="preserve"
       style="font-size:7.85229px;line-height:1.25;font-family:Mitr;-inkscape-font-specification:Mitr;fill:#ffffff;fill-opacity:1;stroke-width:0.196308"
       x="160.85503"
       y="85.1791"
       id="text14700"
       transform="scale(0.74195141,1.3477972)"><tspan
         sodipodi:role="line"
         id="tspan14698"
         style="font-size:7.85229px;fill:#ffffff;fill-opacity:1;stroke-width:0.196308"
         x="160.85503"
         y="85.1791">LatKrabang</tspan></text>
  </g>
  <g
     inkscape:groupmode="layer"
     id="layer7"
     inkscape:label="Layer 7"
     style="display:inline">
    <text
       xml:space="preserve"
       style="font-size:10.5833px;line-height:1.25;font-family:Mitr;-inkscape-font-specification:Mitr;fill:#ffffff;fill-opacity:1;stroke-width:0.264583"
       x="119.92271"
       y="82.462006"
       id="text2960"><tspan
         sodipodi:role="line"
         id="tspan2958"
         style="fill:#ffffff;fill-opacity:1;stroke-width:0.264583"
         x="119.92271"
         y="82.462006">บางพลี</tspan></text>
  </g>
</svg>
